<?xml version="1.0"?><svg width="640" height="480" xmlns="http://www.w3.org/2000/svg" xmlns:xlink="http://www.w3.org/1999/xlink">
 <title>delete button</title>
 <defs>
  <linearGradient id="linearGradient3860">
   <stop offset="0" id="stop3862" stop-color="#ffffff"/>
   <stop offset="1" id="stop3864" stop-opacity="0" stop-color="#fffffe"/>
  </linearGradient>
  <linearGradient xlink:href="#linearGradient3860" id="linearGradient3866" x1="0.476199" y1="1.02073" x2="0.476199" y2="-0.068159"/>
  <linearGradient xlink:href="#linearGradient3860" id="linearGradient3872" x1="0.464398" y1="-0.033358" x2="0.462347" y2="1.003171"/>
 </defs>
 <metadata id="metadata7">image/svg+xml</metadata>
 <g>
  <title>Layer 1</title>
  <use stroke-width="0" x="-47.228275" y="-290.024552" xlink:href="#rect3069" id="use3846" width="1" height="1" stroke="#e56317" fill="#7f7f7f" transform="matrix(0.993607, 0, 0, 0.981416, 4.00321, 4.00929)"/>
  <g id="layer1" transform="translate(-45.214287,-289.00504)" display="none">
   <rect id="rect3069" width="625.71429" height="322.85715" x="45.714287" y="289.50504" ry="74.892807"/>
  </g>
  <text transform="matrix(1.82479, 0, 0, 2.09265, -172.751, -176.926)" fill="#ffffff" stroke-width="0" x="264.547596" y="198.077498" id="svg_1" font-size="100" font-family="Serif" text-anchor="middle" xml:space="preserve" font-weight="bold">Edit</text>
  <g id="svg_2">
   <path d="m81.825897,9.19797c-39.018997,0 -70.458597,33.48103 -70.458597,75.077031l0,6.639999c29.140001,-7.400002 63.290598,-13.985001 95.198702,-14.957001c77.430992,-2.359001 119.458,25.947998 194.676003,21.23101c75.217987,-4.71701 108.390991,-42.476009 174.76001,-44.834011c61.231995,-2.175999 96.088989,43.845997 139.34198,54.684002l0,-22.764c0,-41.596001 -31.404968,-75.077031 -70.424011,-75.077031l-463.094086,0l0,0l0,0l0,0l0,0l0,0z" id="path3870" stroke-width="0.983728" fill="url(#linearGradient3872)" opacity="0.5"/>
   <path d="m487.137207,277.287048c-52.031006,0.27655 -128.394196,9.907532 -188.138092,15.641235c-42.076447,4.038147 -97.809296,0.088196 -109.093414,-4.36908c-30.659668,-12.110352 -78.81778,-14.110046 -137.94714,-4.018066c-3.582031,0.611328 -24.68548,3.240723 -28.22414,3.891602c12.665279,15.925842 33.13908,26.225159 56.29937,26.225159l458.42318,0c24.575806,0 46.092041,-11.612366 58.501221,-29.22229c-22.682007,-1.548645 -50.388062,-3.766968 -80.7229,-6.962158c-8.383453,-0.883057 -18.20813,-1.244263 -29.098083,-1.186401z" id="use3852" stroke-width="0.905445" fill="url(#linearGradient3866)" opacity="0.5"/>
  </g>
 </g>
</svg>